<svg width="60" height="60" viewBox="0 0 60 60" fill="none" xmlns="http://www.w3.org/2000/svg">
<path opacity="0.9" d="M60 30C60 46.7131 49.8529 60 30 60C10.0588 60 0 46.7131 0 30C0 13.2033 10.0588 0 30 0C49.8529 0 60 13.2033 60 30Z" fill="#111013"/>
<path d="M14.5585 29.9996C14.5585 36.1117 18.1104 41.3937 23.261 43.8968L15.8954 23.7153C15.0386 25.6357 14.5585 27.7609 14.5585 29.9996Z" fill="white"/>
<path d="M40.4234 29.2203C40.4234 27.312 39.738 25.9904 39.1501 24.9617C38.3673 23.6897 37.6337 22.6126 37.6337 21.3406C37.6337 19.9212 38.7102 18.5998 40.2266 18.5998C40.2951 18.5998 40.36 18.6084 40.4267 18.6122C37.6795 16.0953 34.0195 14.5586 29.9996 14.5586C24.6052 14.5586 19.8592 17.3264 17.0982 21.5187C17.4605 21.5295 17.8019 21.5372 18.0919 21.5372C19.707 21.5372 22.2071 21.3412 22.2071 21.3412C23.0394 21.2921 23.1376 22.5147 22.3061 22.6132C22.3061 22.6132 21.4696 22.7116 20.5388 22.7604L26.1618 39.4862L29.5409 29.3514L27.1352 22.7598C26.3037 22.711 25.516 22.6126 25.516 22.6126C24.6839 22.5638 24.7814 21.2915 25.6135 21.3406C25.6135 21.3406 28.1635 21.5366 29.6808 21.5366C31.2956 21.5366 33.7959 21.3406 33.7959 21.3406C34.6289 21.2915 34.7267 22.5141 33.8949 22.6126C33.8949 22.6126 33.0567 22.711 32.1276 22.7598L37.7077 39.359L39.2479 34.2121C39.9154 32.0763 40.4234 30.5422 40.4234 29.2203Z" fill="white"/>
<path d="M30.2705 31.3503L25.6376 44.8129C27.0209 45.2196 28.4838 45.442 29.9996 45.442C31.7977 45.442 33.5221 45.1311 35.1272 44.5667C35.0858 44.5006 35.0481 44.4304 35.0173 44.354L30.2705 31.3503Z" fill="white"/>
<path d="M43.5484 22.5911C43.6148 23.083 43.6525 23.611 43.6525 24.1789C43.6525 25.7459 43.3598 27.5074 42.4784 29.7098L37.7618 43.347C42.3523 40.67 45.44 35.6965 45.44 29.9999C45.4403 27.3152 44.7545 24.7907 43.5484 22.5911Z" fill="white"/>
<path d="M29.9996 12C20.0749 12 12 20.0745 12 29.9996C12 39.9258 20.0749 48 29.9996 48C39.924 48 48 39.9258 48 29.9996C47.9997 20.0745 39.924 12 29.9996 12ZM29.9996 47.1749C20.53 47.1749 12.8253 39.47 12.8253 29.9996C12.8253 20.5297 20.5297 12.8253 29.9996 12.8253C39.4689 12.8253 47.1729 20.5297 47.1729 29.9996C47.1729 39.47 39.4689 47.1749 29.9996 47.1749Z" fill="white"/>
</svg>
