<svg width="60" height="60" viewBox="0 0 60 60" fill="none" xmlns="http://www.w3.org/2000/svg">
<g clip-path="url(#clip0)">
<path opacity="0.5" d="M20 19.9286C20 8.92233 28.9223 0 39.9286 0H46.6667C54.0305 0 60 5.96346 60 13.3273C60 15.4076 60 17.6325 60 19.9261C60 30.9323 51.0062 39.8571 40 39.8571C28.9937 39.8571 20 30.9348 20 19.9286Z" fill="url(#paint0_linear)"/>
<g opacity="0.5" filter="url(#filter0_d)">
<path d="M22.6666 20.593C22.6666 11.4211 30.1019 3.98584 39.2738 3.98584H44.8888C51.0253 3.98584 56 8.95539 56 15.0919C56 16.8255 56 18.6795 56 20.5909C56 29.7628 48.5052 37.2001 39.3333 37.2001C30.1614 37.2001 22.6666 29.7649 22.6666 20.593Z" fill="url(#paint1_linear)"/>
</g>
<path d="M13.3333 0.5H39.7929L59.5 20.2071V48C59.5 54.303 53.8052 59.5 46.6667 59.5H13.3333C6.19482 59.5 0.5 54.303 0.5 48V12C0.5 5.69697 6.19482 0.5 13.3333 0.5Z" fill="url(#paint2_linear)" stroke="url(#paint3_linear)"/>
<g filter="url(#filter1_d)">
<path d="M40 0L60 19.9286H50C44.4772 19.9286 40 15.4514 40 9.92857V0Z" fill="white"/>
</g>
</g>
<defs>
<filter id="filter0_d" x="18.6666" y="1.98584" width="41.3333" height="41.2143" filterUnits="userSpaceOnUse" color-interpolation-filters="sRGB">
<feFlood flood-opacity="0" result="BackgroundImageFix"/>
<feColorMatrix in="SourceAlpha" type="matrix" values="0 0 0 0 0 0 0 0 0 0 0 0 0 0 0 0 0 0 127 0"/>
<feOffset dy="2"/>
<feGaussianBlur stdDeviation="2"/>
<feColorMatrix type="matrix" values="0 0 0 0 0 0 0 0 0 0 0 0 0 0 0 0 0 0 0.06 0"/>
<feBlend mode="normal" in2="BackgroundImageFix" result="effect1_dropShadow"/>
<feBlend mode="normal" in="SourceGraphic" in2="effect1_dropShadow" result="shape"/>
</filter>
<filter id="filter1_d" x="36" y="-2" width="28" height="27.9286" filterUnits="userSpaceOnUse" color-interpolation-filters="sRGB">
<feFlood flood-opacity="0" result="BackgroundImageFix"/>
<feColorMatrix in="SourceAlpha" type="matrix" values="0 0 0 0 0 0 0 0 0 0 0 0 0 0 0 0 0 0 127 0"/>
<feOffset dy="2"/>
<feGaussianBlur stdDeviation="2"/>
<feColorMatrix type="matrix" values="0 0 0 0 0 0 0 0 0 0 0 0 0 0 0 0 0 0 0.15 0"/>
<feBlend mode="normal" in2="BackgroundImageFix" result="effect1_dropShadow"/>
<feBlend mode="normal" in="SourceGraphic" in2="effect1_dropShadow" result="shape"/>
</filter>
<linearGradient id="paint0_linear" x1="60" y1="39.8571" x2="20" y2="39.8571" gradientUnits="userSpaceOnUse">
<stop stop-color="#F7ECFF"/>
<stop offset="0.65562" stop-color="#FBF0F1"/>
</linearGradient>
<linearGradient id="paint1_linear" x1="56" y1="37.2001" x2="22.6666" y2="37.2001" gradientUnits="userSpaceOnUse">
<stop stop-color="#F7ECFF"/>
<stop offset="0.65562" stop-color="#FBF0F1"/>
</linearGradient>
<linearGradient id="paint2_linear" x1="60" y1="60" x2="0" y2="60" gradientUnits="userSpaceOnUse">
<stop stop-color="#F7ECFF"/>
<stop offset="0.65562" stop-color="#FBF0F1"/>
</linearGradient>
<linearGradient id="paint3_linear" x1="0" y1="0" x2="48.9073" y2="65.0796" gradientUnits="userSpaceOnUse">
<stop stop-color="white"/>
<stop offset="1" stop-color="white" stop-opacity="0"/>
</linearGradient>
<clipPath id="clip0">
<rect width="60" height="60" fill="white"/>
</clipPath>
</defs>
</svg>
